<?xml version="1.0" encoding="UTF-8"?>
<svg width="601px" height="174px" viewBox="0 0 601 174" version="1.1" xmlns="http://www.w3.org/2000/svg" xmlns:xlink="http://www.w3.org/1999/xlink">
    <title>davyn-logo</title>
    <defs>
        <linearGradient x1="50.0000186%" y1="100%" x2="50.0000186%" y2="6.23343203e-05%" id="linearGradient-1">
            <stop stop-color="#4CC9F0" offset="0%"></stop>
            <stop stop-color="#49AAEF" offset="23%"></stop>
            <stop stop-color="#4682EF" offset="57%"></stop>
            <stop stop-color="#446AEE" offset="84%"></stop>
            <stop stop-color="#4361EE" offset="100%"></stop>
        </linearGradient>
        <linearGradient x1="50.0013473%" y1="99.9999432%" x2="50.0013473%" y2="4.60235555e-15%" id="linearGradient-2">
            <stop stop-color="#7209B7" offset="0%"></stop>
            <stop stop-color="#6A18C1" offset="13%"></stop>
            <stop stop-color="#5540D9" offset="51%"></stop>
            <stop stop-color="#4858E8" offset="81%"></stop>
            <stop stop-color="#4361EE" offset="100%"></stop>
        </linearGradient>
    </defs>
    <g id="Page-1" stroke="none" stroke-width="1" fill="none" fill-rule="evenodd">
        <g id="davyn-logo" transform="translate(0.666018, 0.599670)" fill-rule="nonzero">
            <path d="M33.5000405,66.6719605 L33.5000405,144.74383 C12.4598429,129.788923 -0.0267083078,105.563616 8.8817842e-15,79.7500845 C8.8817842e-15,35.7063377 35.7062903,2.47863745e-15 79.7594122,2.47863745e-15 C92.0242908,-0.0184041607 104.126492,2.8065838 115.11566,8.25321464 L115.131285,92.8375836 C115.117538,101.098688 108.426755,107.793662 100.165661,107.812583 L100.165661,107.812583 C91.9228058,107.790337 85.2423194,101.121015 85.2062868,92.8782086 L85.2062868,66.6282105 C85.1547393,52.3836024 73.6072136,40.8556251 59.3625387,40.8282123 L59.3625387,40.8282123 C45.0920969,40.8419732 33.524151,52.4015324 33.5000405,66.6719605 Z" id="Path" fill="url(#linearGradient-1)"></path>
            <path d="M159.509429,79.7500845 C159.509429,123.812581 123.803159,159.509536 79.7594122,159.509536 C67.4909106,159.527115 55.385388,156.699961 44.3937897,151.250079 L44.3750397,66.6657105 C44.3939414,58.4082666 51.0832198,51.7189883 59.3406637,51.7000865 L59.3406637,51.7000865 C67.5859584,51.7189032 74.2702358,58.3892231 74.3062876,66.6344605 L74.3062876,92.8844586 C74.3526821,107.129786 85.8984122,118.661552 100.143786,118.690707 L100.159411,118.690707 C114.426595,118.670035 125.984862,107.104778 125.996909,92.8375836 L125.981284,14.7719642 C147.030884,29.7147086 159.528812,53.9359234 159.509429,79.7500845 Z" id="Path" fill="url(#linearGradient-2)"></path>
            <path d="M356.290642,141.47508 L340.215644,141.47508 L340.215644,132.456331 C334.312519,139.50633 325.45627,143.28133 314.465645,143.28133 C297.571897,143.28133 286.421897,133.931331 286.421897,119.990707 C286.421897,106.050083 297.900022,97.0282083 316.109395,97.0282083 L338.921897,97.0282083 L338.921897,91.7813337 C338.921897,80.6282095 332.690644,74.5594599 321.70002,74.5594599 C312.681271,74.5594599 306.121896,78.4969596 299.396896,86.531334 L299.396896,86.531334 L289.396897,76.3625848 C297.434397,64.7188356 309.396896,59.143836 323.346895,59.143836 C343.193768,59.143836 356.315642,71.1157101 356.315642,92.7657086 L356.290642,141.47508 Z M338.903144,109.493832 L318.23752,109.493832 C309.053146,109.493832 303.968771,112.775082 303.968771,119.334457 C303.968771,126.059456 309.709396,129.993832 318.07502,129.993832 C329.718769,129.993832 338.903144,121.959457 338.903144,110.968832 L338.903144,109.493832 Z" id="Shape" fill="#4361EE"></path>
            <path d="M227.071902,33.2313378 L193.125029,33.2313378 L193.125029,141.471955 L227.071902,141.471955 C262.328149,141.471955 285.953147,118.675082 285.953147,87.187584 C285.953147,55.2032113 262.500024,33.2313378 227.071902,33.2313378 Z M255.29065,116.465707 C248.8969,121.875082 240.312526,125.234456 230.087526,125.806331 C229.043777,125.868831 227.984402,125.893831 226.906277,125.893831 L210.503153,125.893831 L210.503153,48.9750867 L226.906277,48.9750867 C252.162525,48.9750867 268.071899,64.2219606 268.071899,87.187584 C268.071899,99.3250831 263.437524,109.578207 255.29065,116.465707 Z" id="Shape" fill="#4361EE"></path>
            <polygon id="Path" fill="#4361EE" points="438.190637 60.9375859 399.321889 143.28133 393.418765 143.28133 354.375018 60.9375859 372.746891 60.9375859 396.362515 114.240707 419.800013 60.9375859"></polygon>
            <path d="M525.075005,60.9375859 L485.875008,150.659454 C479.150009,165.912578 470.131259,172.800672 456.353135,172.800672 C451.873395,172.821356 447.409239,172.271081 443.068761,171.162578 L443.068761,156.562579 C448.153136,157.053204 451.268761,157.218829 452.581261,157.218829 C460.61876,157.218829 466.19376,154.428204 470.131259,145.409455 L473.412509,137.865705 L441.265636,60.9375859 L459.796885,60.9375859 L482.921883,119.487582 L506.706257,60.9375859 L525.075005,60.9375859 Z" id="Path" fill="#4361EE"></path>
            <path d="M600,141.47508 L582.778126,141.47508 L582.778126,93.4375835 C582.778126,82.2844593 575.725002,74.7407099 565.231252,74.7407099 C554.568753,74.7407099 546.859379,82.4469593 546.859379,93.4375835 L546.859379,141.47508 L529.64063,141.47508 L529.64063,60.9375859 L545.712504,60.9375859 L545.712504,68.8094603 C551.781253,62.4125858 559.818753,59.121961 569.821877,59.121961 C588.684376,59.121961 600,71.9125851 600,91.1032087 L600,141.47508 Z" id="Path" fill="#7209B7"></path>
        </g>
    </g>
</svg>
