<?xml version="1.0" encoding="UTF-8"?>
<svg width="380" height="96" viewBox="0 0 380 96" fill="none" xmlns="http://www.w3.org/2000/svg">
  <title>Factorial</title>
  <rect x="0" y="0" width="96" height="96" rx="22" fill="#111827"/>
  <path d="M28 64V32H68V44H42V52H64V64H28Z" fill="#FFFFFF"/>
  <path d="M108 66V28H124V42H140V28H156V66H140V54H124V66H108Z" fill="#111827"/>
  <path d="M164 66V28H180V66H164Z" fill="#111827"/>
  <path d="M190 66V28H206V52H230V66H190Z" fill="#111827"/>
  <path d="M238 66V28H254V66H238Z" fill="#111827"/>
  <path d="M262 66V28H278V40H300V52H278V66H262Z" fill="#111827"/>
  <path d="M308 66V28H324V66H308Z" fill="#111827"/>
  <path d="M332 66V28H380V40H348V44H378V54H348V66H332Z" fill="#111827"/>
</svg>
